<?xml version="1.0" encoding="utf-8"?>
<!-- Generator: Adobe Illustrator 28.1.0, SVG Export Plug-In . SVG Version: 6.00 Build 0)  -->
<svg version="1.1" id="facebook" xmlns="http://www.w3.org/2000/svg" xmlns:xlink="http://www.w3.org/1999/xlink" x="0px" y="0px"
	 viewBox="0 0 600 216.8" style="enable-background:new 0 0 600 216.8;" xml:space="preserve">
<style type="text/css">
	.st0{fill:none;stroke:#000000;stroke-width:3;stroke-miterlimit:10;}
	.st1{fill:#354EA2;}

	

	 #pop_x5F_up {
        opacity: 0;
        transform: translateX(-5px); 
        transition: opacity 0.5s ease, transform 0.5s ease; 
    }

    #facebook:hover #pop_x5F_up  {
        opacity: 1;
        transform: translateX(0);
    }
</style>
<script>
      // select the path element directly
      let thePath = document.querySelector('#facebook');

      // functions always go in the middle
      function logMyId() {        
        console.log("facebook1");
      }

      // event handling at the bottom
      document.addEventListener('click', logMyId);
    </script>
<g id="facebook_x5F_icon">
	<ellipse class="st0" cx="203.9" cy="110.1" rx="80.2" ry="80.9"/>
	<g>
		<g>
			<path d="M192.7,152.9v-50.9h-8.2v-8.1h8.2v-2.8c0-8.3,1.9-15.8,6.8-20.7c4-3.9,9.3-5.4,14.2-5.4c3.9,0,7,0.8,9.1,1.7l-1.4,8.2
				c-1.6-0.7-3.7-1.3-6.8-1.3c-9,0-11.3,8-11.3,17.1v3.2h14.1v8.1h-14.1v50.9H192.7z"/>
		</g>
	</g>
</g>
<g id="pop_x5F_up">
	<path class="st0" d="M416.5,190.3H196.9c-38.8,0-70.5-31.7-70.5-70.5v-19.3c0-38.8,31.7-70.5,70.5-70.5h219.6
		c38.8,0,70.5,31.7,70.5,70.5v19.3C487,158.5,455.3,190.3,416.5,190.3z"/>
	<g>
		<g>
			<path class="st1" d="M296.1,93.3h15.2v3h-11.6v9.4h10.7v3h-10.7v12.8h-3.7V93.3z"/>
			<path class="st1" d="M327.7,121.6l-0.3-2.6h-0.1c-1.1,1.6-3.3,3-6.2,3c-4.1,0-6.2-2.9-6.2-5.8c0-4.9,4.4-7.6,12.2-7.6v-0.4
				c0-1.7-0.5-4.7-4.6-4.7c-1.9,0-3.9,0.6-5.3,1.5l-0.8-2.5c1.7-1.1,4.1-1.8,6.7-1.8c6.2,0,7.7,4.2,7.7,8.3v7.6
				c0,1.7,0.1,3.5,0.3,4.9H327.7z M327.1,111.2c-4-0.1-8.6,0.6-8.6,4.6c0,2.4,1.6,3.5,3.4,3.5c2.7,0,4.4-1.7,5-3.4
				c0.1-0.4,0.2-0.8,0.2-1.2V111.2z"/>
			<path class="st1" d="M351.2,120.9c-1,0.5-3.1,1.2-5.8,1.2c-6.1,0-10.1-4.2-10.1-10.4c0-6.3,4.3-10.8,10.9-10.8
				c2.2,0,4.1,0.6,5.1,1.1l-0.8,2.8c-0.9-0.5-2.3-1-4.3-1c-4.6,0-7.2,3.5-7.2,7.7c0,4.7,3,7.6,7.1,7.6c2.1,0,3.5-0.5,4.5-1
				L351.2,120.9z"/>
			<path class="st1" d="M357.6,112.1c0.1,5,3.2,7.1,7,7.1c2.6,0,4.3-0.5,5.6-1l0.6,2.6c-1.3,0.6-3.6,1.3-6.8,1.3
				c-6.2,0-10-4.2-10-10.3c0-6.2,3.6-11,9.6-11c6.6,0,8.4,5.8,8.4,9.6c0,0.8,0,1.3-0.1,1.7H357.6z M368.4,109.5c0-2.3-1-6-5.1-6
				c-3.8,0-5.4,3.4-5.7,6H368.4z"/>
			<path class="st1" d="M376.4,121.6c0.1-1.4,0.2-3.4,0.2-5.2V91.8h3.7v12.8h0.1c1.3-2.3,3.7-3.7,6.9-3.7c5,0,8.6,4.2,8.6,10.3
				c0,7.3-4.6,10.9-9.1,10.9c-2.9,0-5.3-1.2-6.8-3.8h-0.1l-0.2,3.3H376.4z M380.2,113.5c0,0.5,0.1,0.9,0.2,1.3
				c0.7,2.6,2.9,4.3,5.5,4.3c3.9,0,6.2-3.1,6.2-7.8c0-4.1-2.1-7.6-6.1-7.6c-2.5,0-4.9,1.8-5.6,4.5c-0.1,0.5-0.2,0.9-0.2,1.5V113.5z"
				/>
			<path class="st1" d="M418.8,111.3c0,7.5-5.2,10.8-10.1,10.8c-5.5,0-9.8-4-9.8-10.5c0-6.8,4.5-10.8,10.1-10.8
				C414.9,100.8,418.8,105.1,418.8,111.3z M402.7,111.5c0,4.5,2.6,7.8,6.2,7.8c3.5,0,6.2-3.3,6.2-7.9c0-3.4-1.7-7.8-6.1-7.8
				C404.6,103.6,402.7,107.7,402.7,111.5z"/>
			<path class="st1" d="M441.9,111.3c0,7.5-5.2,10.8-10.1,10.8c-5.5,0-9.8-4-9.8-10.5c0-6.8,4.5-10.8,10.1-10.8
				C437.9,100.8,441.9,105.1,441.9,111.3z M425.8,111.5c0,4.5,2.6,7.8,6.2,7.8c3.5,0,6.2-3.3,6.2-7.9c0-3.4-1.7-7.8-6.1-7.8
				C427.7,103.6,425.8,107.7,425.8,111.5z"/>
			<path class="st1" d="M450.2,110.6L450.2,110.6c0.6-0.7,1.3-1.6,1.9-2.3l6-7h4.4l-7.8,8.4l8.9,12h-4.5l-7-9.8l-1.9,2.1v7.6h-3.7
				V91.8h3.7V110.6z"/>
		</g>
	</g>
</g>
</svg>
