<?xml version="1.0" encoding="utf-8"?>
<!-- Generator: Adobe Illustrator 28.1.0, SVG Export Plug-In . SVG Version: 6.00 Build 0)  -->
<svg version="1.1" id="instagram" xmlns="http://www.w3.org/2000/svg" xmlns:xlink="http://www.w3.org/1999/xlink" x="0px" y="0px"
	 viewBox="0 0 600 216.8" style="enable-background:new 0 0 600 216.8;" xml:space="preserve">
<style type="text/css">
	.st0{fill:none;stroke:#000000;stroke-width:3;stroke-miterlimit:10;}
	.st1{fill:none;stroke:#000000;stroke-width:5;stroke-miterlimit:10;}
	.st2{stroke:#000000;stroke-width:5;stroke-miterlimit:10;}
	.st3{fill:#8651A0;}

	#pop_x5F_up {
        opacity: 0;
        transform: translateX(-5px); 
        transition: opacity 0.5s ease, transform 0.5s ease; 
    }

    #instagram:hover #pop_x5F_up  {
        opacity: 1;
        transform: translateX(0);
    }
</style>
<script>
      // select the path element directly
      let thePath = document.querySelector('#instagram');

      // functions always go in the middle
      function logMyId() {        
        console.log("instagram1");
      }

      // event handling at the bottom
      document.addEventListener('click', logMyId);
    </script>
<g id="instagram_x5F_icon">
	<ellipse class="st0" cx="203.9" cy="110.1" rx="80.2" ry="80.9"/>
	<path class="st1" d="M232,150.2h-56.1c-6.6,0-12-5.4-12-12V82.1c0-6.6,5.4-12,12-12H232c6.6,0,12,5.4,12,12v56.1
		C244,144.8,238.6,150.2,232,150.2z"/>
	<circle class="st1" cx="203.9" cy="110.1" r="18.9"/>
	<circle class="st2" cx="227.2" cy="83.9" r="0.8"/>
</g>
<g id="pop_x5F_up">
	<path class="st0" d="M416.5,190.3H196.9c-38.8,0-70.5-31.7-70.5-70.5v-19.3c0-38.8,31.7-70.5,70.5-70.5h219.6
		c38.8,0,70.5,31.7,70.5,70.5v19.3C487,158.5,455.3,190.3,416.5,190.3z"/>
	<g>
		<g>
			<path class="st3" d="M299.8,93.3v28.3h-3.7V93.3H299.8z"/>
			<path class="st3" d="M306,106.8c0-2.1-0.1-3.8-0.2-5.5h3.3l0.2,3.3h0.1c1-1.9,3.4-3.8,6.7-3.8c2.8,0,7.2,1.7,7.2,8.7v12.1h-3.7
				v-11.7c0-3.3-1.2-6-4.7-6c-2.4,0-4.3,1.7-5,3.8c-0.2,0.5-0.3,1.1-0.3,1.7v12.2H306V106.8z"/>
			<path class="st3" d="M328.8,117.9c1.1,0.7,3.1,1.4,4.9,1.4c2.7,0,3.9-1.3,3.9-3c0-1.8-1.1-2.7-3.8-3.7c-3.7-1.3-5.4-3.3-5.4-5.8
				c0-3.3,2.7-6,7-6c2.1,0,3.8,0.6,5,1.2l-0.9,2.7c-0.8-0.5-2.3-1.2-4.2-1.2c-2.2,0-3.4,1.3-3.4,2.8c0,1.7,1.2,2.4,3.9,3.5
				c3.5,1.3,5.3,3.1,5.3,6.1c0,3.6-2.8,6.1-7.6,6.1c-2.2,0-4.3-0.6-5.7-1.4L328.8,117.9z"/>
			<path class="st3" d="M350.4,95.5v5.8h5.3v2.8h-5.3v10.9c0,2.5,0.7,4,2.8,4c1,0,1.7-0.1,2.1-0.3l0.2,2.8c-0.7,0.3-1.9,0.5-3.3,0.5
				c-1.7,0-3.1-0.6-4-1.6c-1-1.1-1.4-2.9-1.4-5.3v-11.1h-3.1v-2.8h3.1v-4.9L350.4,95.5z"/>
			<path class="st3" d="M371.1,121.6l-0.3-2.6h-0.1c-1.1,1.6-3.3,3-6.2,3c-4.1,0-6.2-2.9-6.2-5.8c0-4.9,4.4-7.6,12.2-7.6v-0.4
				c0-1.7-0.5-4.7-4.6-4.7c-1.9,0-3.9,0.6-5.3,1.5l-0.8-2.5c1.7-1.1,4.1-1.8,6.7-1.8c6.2,0,7.7,4.2,7.7,8.3v7.6
				c0,1.7,0.1,3.5,0.3,4.9H371.1z M370.6,111.2c-4-0.1-8.6,0.6-8.6,4.6c0,2.4,1.6,3.5,3.4,3.5c2.7,0,4.4-1.7,5-3.4
				c0.1-0.4,0.2-0.8,0.2-1.2V111.2z"/>
			<path class="st3" d="M397.6,101.3c-0.1,1.4-0.2,3.1-0.2,5.6v11.8c0,4.7-1,7.5-2.9,9.3c-2,1.8-4.8,2.4-7.4,2.4
				c-2.5,0-5.1-0.6-6.8-1.7l0.9-2.8c1.4,0.8,3.4,1.6,6,1.6c3.8,0,6.5-2,6.5-7.1v-2.3h-0.1c-1.1,1.9-3.3,3.4-6.5,3.4
				c-5.1,0-8.7-4.3-8.7-9.9c0-6.9,4.5-10.8,9.2-10.8c3.5,0,5.4,1.8,6.3,3.5h0.1l0.2-3H397.6z M393.8,109.3c0-0.6-0.1-1.2-0.2-1.7
				c-0.7-2.2-2.5-3.9-5.2-3.9c-3.5,0-6.1,3-6.1,7.7c0,4,2.1,7.3,6,7.3c2.3,0,4.3-1.4,5.1-3.8c0.2-0.6,0.3-1.3,0.3-2V109.3z"/>
			<path class="st3" d="M403.6,107.6c0-2.4-0.1-4.4-0.2-6.3h3.2l0.1,4h0.1c0.9-2.7,3.2-4.4,5.7-4.4c0.4,0,0.7,0,1,0.1v3.5
				c-0.4-0.1-0.7-0.1-1.3-0.1c-2.6,0-4.4,2-4.9,4.7c-0.1,0.5-0.1,1.1-0.1,1.7v10.9h-3.7V107.6z"/>
			<path class="st3" d="M428.6,121.6l-0.3-2.6h-0.1c-1.1,1.6-3.3,3-6.2,3c-4.1,0-6.2-2.9-6.2-5.8c0-4.9,4.4-7.6,12.2-7.6v-0.4
				c0-1.7-0.5-4.7-4.6-4.7c-1.9,0-3.9,0.6-5.3,1.5l-0.8-2.5c1.7-1.1,4.1-1.8,6.7-1.8c6.2,0,7.7,4.2,7.7,8.3v7.6
				c0,1.7,0.1,3.5,0.3,4.9H428.6z M428,111.2c-4-0.1-8.6,0.6-8.6,4.6c0,2.4,1.6,3.5,3.4,3.5c2.7,0,4.4-1.7,5-3.4
				c0.1-0.4,0.2-0.8,0.2-1.2V111.2z"/>
			<path class="st3" d="M437.6,106.8c0-2.1-0.1-3.8-0.2-5.5h3.2l0.2,3.3h0.1c1.1-1.9,3-3.7,6.4-3.7c2.8,0,4.9,1.7,5.7,4.1h0.1
				c0.7-1.2,1.5-2,2.3-2.6c1.2-0.9,2.6-1.4,4.5-1.4c2.7,0,6.7,1.7,6.7,8.8v12H463v-11.5c0-3.9-1.5-6.3-4.4-6.3
				c-2.1,0-3.7,1.5-4.4,3.3c-0.2,0.5-0.3,1.2-0.3,1.9v12.6h-3.6v-12.2c0-3.2-1.4-5.6-4.2-5.6c-2.3,0-4,1.8-4.6,3.7
				c-0.2,0.5-0.3,1.2-0.3,1.8v12.2h-3.6V106.8z"/>
		</g>
	</g>
</g>
</svg>
