<?xml version="1.0" encoding="utf-8"?>
<!-- Generator: Adobe Illustrator 28.1.0, SVG Export Plug-In . SVG Version: 6.00 Build 0)  -->
<svg version="1.1" id="Layer_1" xmlns="http://www.w3.org/2000/svg" xmlns:xlink="http://www.w3.org/1999/xlink" x="0px" y="0px"
	 viewBox="0 0 600 384" style="enable-background:new 0 0 600 384;" xml:space="preserve">
<style type="text/css">
	.st0{fill:none;stroke:#000000;stroke-width:20;stroke-miterlimit:10;}
	.st1{fill:#ED2024;}
	.st2{fill:#FFFFFF;}
	.st3{font-family:'FranklinGothic-Heavy';}
	.st4{font-size:51.2123px;}

	#Layer_1 {
		margin-top:-30px
	}

	#Layer_1:hover {
		animation: shake 2s forwards;
	}

	@keyframes shake {
		10% {
			transform: rotate(15deg);
		}
		20% {
			transform: rotate(-15deg);
		}
		30% {
			transform: rotate(15deg);
		}
		50% {
			transform: rotate(0deg);
		}
	}

	.red_one {
		transform: scale(0);
	}

	#Layer_1:hover .red_one {
		transform: scale(1)
	}


</style>
<script>
      // select the path element directly
      let thePath = document.querySelector('#Layer_1');

      // functions always go in the middle
      function logMyId() {        
        console.log("new notification");
      }

      // event handling at the bottom
      document.addEventListener('click', logMyId);
    </script>
<g>
	<g>
		<path class="st0" d="M298.5,375h2.9c20.9,0,37.8-16.9,37.8-37.8v0h-78.5v0C260.7,358.1,277.6,375,298.5,375z"/>
		<path class="st0" d="M420.9,335H183.1c-16.7,0-26.7-18.7-17.3-32.6l23.2-34.3V162.1c-0.1-2.3-0.3-4.8-0.3-7.2
			c0-48.1,30.5-89,73.2-104.5c11.9-4.3,24.6-6.7,37.9-6.7c13.4,0,26.1,2.3,38,6.7c41.1,15,70.9,53.5,73,99.4h0.1v118.4l24.3,41.5
			C442,320.9,433.9,335,420.9,335z"/>
	</g>
	<path class="st0" d="M338,47.7v2.7c-11.9-4.3-24.6-6.7-38-6.7c-13.3,0-26.1,2.3-37.9,6.7v-2.7c0-21,17-38,38-38
		c10.5,0,20,4.3,26.8,11.1C333.7,27.8,338,37.3,338,47.7z"/>
</g>
<g class="red_one">
	<circle class="st1" cx="388.4" cy="83.5" r="39.8"/>
	<text transform="matrix(1 0 0 1 373.6148 100.6678)" class="st2 st3 st4">1</text>
</g>
</svg>
