<?xml version="1.0" encoding="utf-8"?>
<!-- Generator: Adobe Illustrator 28.1.0, SVG Export Plug-In . SVG Version: 6.00 Build 0)  -->
<svg version="1.1" id="Layer_1" xmlns="http://www.w3.org/2000/svg" xmlns:xlink="http://www.w3.org/1999/xlink" x="0px" y="0px"
	 viewBox="0 0 600 600" style="enable-background:new 0 0 600 600;" xml:space="preserve">
 <style type="text/css">
        .st0{fill:none;stroke:#3D4DA1;stroke-width:9;stroke-miterlimit:10;}
        .st1{fill:none;stroke:#85D3F5;stroke-width:15;stroke-linecap:round;stroke-miterlimit:10;}
        .st2{fill:#3A53A4;}
        .st3{font-family:'Algerian';}
        .st4{font-size:85.4107px;}
        
        #snowflake {
			transition: all 6s ease; 
            transform-origin: center;
			transform-box: fill-box;
        }
		  
      #Layer_1:hover #snowflake { 
        transform: rotate(360deg); 
      }

    </style>
<script>
      // select the path element directly
      let thePath = document.querySelector('#Layer_1');

      // functions always go in the middle
      function logMyId() {        
        console.log("snowflake");
      }

      // event handling at the bottom
      document.addEventListener('click', logMyId);
    </script>
	
<path class="st0" d="M224.4,63.9"/>
<g id="snowflake">
	<g>
		<polyline class="st1" points="274.8,223.8 232.7,266 190.5,223.8 		"/>
		<polyline class="st1" points="268.8,166.4 232.7,202.5 196.5,166.4 		"/>
		<line class="st1" x1="232.7" y1="265.1" x2="232.7" y2="118.5"/>
		<circle class="st1" cx="232.5" cy="289.1" r="16.6"/>
	</g>
	<g>
		<polyline class="st1" points="190.5,354.2 232.7,312.1 274.8,354.2 		"/>
		<polyline class="st1" points="196.5,411.6 232.7,375.5 268.8,411.6 		"/>
		<line class="st1" x1="232.7" y1="312.9" x2="232.7" y2="459.6"/>
		<circle class="st1" cx="232.8" cy="289" r="16.6"/>
	</g>
	<g>
		<polyline class="st1" points="309.9,297.8 253.8,277.8 273.9,221.7 		"/>
		<polyline class="st1" points="359.3,267.8 311.2,250.6 328.4,202.5 		"/>
		<line class="st1" x1="254.6" y1="277.4" x2="387.1" y2="214.7"/>
		<circle class="st1" cx="232.8" cy="287.5" r="16.6"/>
	</g>
	<g>
		<polyline class="st1" points="267.9,358.7 252.7,301.1 310.4,286 		"/>
		<polyline class="st1" points="320.5,382.5 307.5,333.1 356.9,320.1 		"/>
		<line class="st1" x1="253.4" y1="301.5" x2="380.1" y2="375.5"/>
		<circle class="st1" cx="232.8" cy="289.3" r="16.6"/>
	</g>
	<g>
		<polyline class="st1" points="193.9,220.2 212,277 155.2,295.1 		"/>
		<polyline class="st1" points="140.2,199.2 155.7,247.9 107,263.4 		"/>
		<line class="st1" x1="211.3" y1="276.6" x2="81" y2="209.3"/>
		<circle class="st1" cx="232.5" cy="287.8" r="16.6"/>
	</g>
	<g>
		<polyline class="st1" points="155.2,285.5 212.8,300.8 197.6,358.4 		"/>
		<polyline class="st1" points="108.6,319.6 157.9,332.7 144.9,382.1 		"/>
		<line class="st1" x1="212.1" y1="301.2" x2="85.3" y2="375"/>
		<circle class="st1" cx="232.8" cy="289.3" r="16.6"/>
	</g>
</g>
<text transform="matrix(1 0 0 1 138.526 321.9626)" class="st2 st3 st4">ZIMA</text>
</svg>
