<?xml version="1.0" encoding="utf-8"?>
<!-- Generator: Adobe Illustrator 28.1.0, SVG Export Plug-In . SVG Version: 6.00 Build 0)  -->
<svg version="1.1" id="youtube" xmlns="http://www.w3.org/2000/svg" xmlns:xlink="http://www.w3.org/1999/xlink" x="0px" y="0px"
	 viewBox="0 0 600 216.8" style="enable-background:new 0 0 600 216.8;" xml:space="preserve">
<style type="text/css">
	.st0{fill:none;stroke:#000000;stroke-width:3;stroke-miterlimit:10;}
	.st1{fill:#ED2024;}
	.st2{fill:#FFFFFF;}


	#pop_x5F_up {
        opacity: 0;
        transform: translateX(-5px); 
        transition: opacity 0.5s ease, transform 0.5s ease; 
    }

    #youtube:hover #pop_x5F_up  {
        opacity: 1;
        transform: translateX(0);
    }
</style>

<script>
      // select the path element directly
      let thePath = document.querySelector('#youtube');

      // functions always go in the middle
      function logMyId() {        
        console.log("youtube1");
      }

      // event handling at the bottom
      document.addEventListener('click', logMyId);
    </script>
<g id="pop_x5F_up">
	<path class="st0" d="M416,190.3H196.4c-38.8,0-70.5-31.7-70.5-70.5v-19.3c0-38.8,31.7-70.5,70.5-70.5H416
		c38.8,0,70.5,31.7,70.5,70.5v19.3C486.5,158.5,454.8,190.3,416,190.3z"/>
	<g>
		<g>
			<path class="st1" d="M309.5,124.8v-12l-9-16.3h4.2l4,7.8c1.1,2.1,1.9,3.9,2.8,5.8h0.1c0.8-1.9,1.7-3.7,2.8-5.9l4.1-7.8h4.1
				l-9.5,16.3v12.1H309.5z"/>
			<path class="st1" d="M344.2,114.4c0,7.5-5.2,10.8-10.1,10.8c-5.5,0-9.8-4-9.8-10.5c0-6.8,4.5-10.8,10.1-10.8
				C340.2,104,344.2,108.2,344.2,114.4z M328.1,114.6c0,4.5,2.6,7.8,6.2,7.8c3.5,0,6.2-3.3,6.2-7.9c0-3.4-1.7-7.8-6.1-7.8
				C330,106.7,328.1,110.8,328.1,114.6z"/>
			<path class="st1" d="M365.8,119.2c0,2.1,0.1,4,0.2,5.6h-3.3l-0.2-3.3h-0.1c-0.9,1.6-3.1,3.8-6.7,3.8c-3.2,0-7-1.8-7-8.9v-11.9
				h3.7v11.2c0,3.9,1.2,6.5,4.5,6.5c2.5,0,4.2-1.7,4.9-3.4c0.2-0.5,0.3-1.2,0.3-1.9v-12.4h3.7V119.2z"/>
			<path class="st1" d="M377.5,99.5h-8.6v-3.1h21v3.1h-8.7v25.2h-3.7V99.5z"/>
			<path class="st1" d="M409.9,119.2c0,2.1,0.1,4,0.2,5.6h-3.3l-0.2-3.3h-0.1c-0.9,1.6-3.1,3.8-6.7,3.8c-3.2,0-7-1.8-7-8.9v-11.9
				h3.7v11.2c0,3.9,1.2,6.5,4.5,6.5c2.5,0,4.2-1.7,4.9-3.4c0.2-0.5,0.3-1.2,0.3-1.9v-12.4h3.7V119.2z"/>
			<path class="st1" d="M415.8,124.8c0.1-1.4,0.2-3.4,0.2-5.2V94.9h3.7v12.8h0.1c1.3-2.3,3.7-3.7,6.9-3.7c5,0,8.6,4.2,8.6,10.3
				c0,7.3-4.6,10.9-9.1,10.9c-2.9,0-5.3-1.2-6.8-3.8h-0.1l-0.2,3.3H415.8z M419.7,116.6c0,0.5,0.1,0.9,0.2,1.3
				c0.7,2.6,2.9,4.3,5.5,4.3c3.9,0,6.2-3.1,6.2-7.8c0-4.1-2.1-7.6-6.1-7.6c-2.5,0-4.9,1.8-5.6,4.5c-0.1,0.5-0.2,0.9-0.2,1.5V116.6z"
				/>
			<path class="st1" d="M442,115.3c0.1,5,3.2,7.1,7,7.1c2.6,0,4.3-0.5,5.6-1l0.6,2.6c-1.3,0.6-3.6,1.3-6.8,1.3
				c-6.2,0-10-4.2-10-10.3c0-6.2,3.6-11,9.6-11c6.6,0,8.4,5.8,8.4,9.6c0,0.8,0,1.3-0.1,1.7H442z M452.8,112.6c0-2.3-1-6-5.1-6
				c-3.8,0-5.4,3.4-5.7,6H452.8z"/>
		</g>
	</g>
</g>
<g id="youtube_x5F_icon">
	<g id="instagram_x5F_icon">
		<ellipse class="st0" cx="203.9" cy="110.1" rx="80.2" ry="80.9"/>
	</g>
	<path d="M251.3,146.9h-94.7c-6.6,0-12-5.4-12-12V85.4c0-6.6,5.4-12,12-12h94.7c6.6,0,12,5.4,12,12v49.5
		C263.3,141.5,257.9,146.9,251.3,146.9z"/>
	<polygon class="st2" points="216.6,110.1 203.9,117.4 191.3,124.8 191.3,110.1 191.3,95.5 203.9,102.8 	"/>
</g>
</svg>
