<?xml version="1.0" encoding="utf-8"?>
<!-- Generator: Adobe Illustrator 28.1.0, SVG Export Plug-In . SVG Version: 6.00 Build 0)  -->
<svg version="1.1" id="Layer_1" xmlns="http://www.w3.org/2000/svg" xmlns:xlink="http://www.w3.org/1999/xlink" x="0px" y="0px"
	 viewBox="0 0 600 600" style="enable-background:new 0 0 600 600;" xml:space="preserve">
<style type="text/css">
	.st0{fill:#73CFEE;stroke:#232463;stroke-miterlimit:10;}
	.st0:hover {
		fill: #0015DB;
	}
</style>
<script>
      // select the path element directly
      let thePath = document.querySelector('.st0');

      // functions always go in the middle
      function logMyId() {        
        console.log("Zima is the best");
      }

      // event handling at the bottom
      document.addEventListener('click', logMyId);
    </script>
<g>
	<path class="st0" d="M230.77,180.66c9.68,0.47,19.02,1.98,27.6,3.61c11.55,2.19,16.87,4.51,15.56,6.73
		c-0.43,0.73-1.38,1.21-2.86,1.43c-1.48,0.22-5.02,0.37-10.65,0.59c-4.7,0.18-8.43,1.33-11.1,3.5s-5.92,6.61-8.79,13.9
		c-4.86,12.33-5.11,21-3.59,24.15c0.59,1,1.64,1.74,3.14,2.22c1.5,0.49,4.17,0.97,8.05,1.55c7.12,0.95,10.64,2.62,10.5,4.55
		c-0.2,2.72-7.17,4.24-20.57,6.25c-17.4,2.62-35.11,6.7-50.93,13.01c-5.71,2.28-41.61,22.89-43.54,17.86
		c-0.58-1.51,2.44-7.17,7.97-13.08c4.24-4.53,7.09-8.12,8.1-11.14c3.88-11.62,6.43-24.14,10.81-35.85
		c4.31-11.54,7.03-18.09,6.32-20.65c-0.33-1.48-2.59-2.42-6.54-2.81c-3.03-0.3-4.95-0.71-5.73-1.2c-0.79-0.5-0.81-1.39-0.05-2.68
		c1.17-1.97,3.99-4.01,8.47-5.8s11.95-3.95,22.06-5.05C206.91,180.47,218.83,180.08,230.77,180.66z"/>
	<path class="st0" d="M367.3,196.56c12.05,0.42,24.11,0.97,36.18,0.85c1.81-0.03,3.25-0.12,4.3-0.27c0.88-0.12,3.42-0.73,7.51-2.07
		c1.3-0.44,2.72-0.82,4.27-1.15c5.74-1.23,12.5-1.25,20.79,0.01c8.29,1.26,13.53,3.24,15.19,6.45c0.97,1.87,0.22,4.05-2.34,6.36
		c-2.56,2.31-6.2,4.1-10.82,5.23c-3.85,0.94-7.11,1.32-9.71,1.26c-2.61-0.06-8.51-0.62-17.42-2.17
		c-11.53-2.04-23.23-3.32-34.94-3.43c-5.31-0.05-9.53,0.18-12.7,0.81c-3.17,0.63-4.78,1.56-4.74,2.89
		c0.07,2.63,7.84,5.67,23.26,7.07c13.49,1.22,27.15,1.75,40.79,1.75c11.62,0.23,40.89-2.15,44.78,10.49
		c3.64,11.83-14.75,21.82-23.87,26.39c-23.09,11.59-51.9,12.01-77.91,9.53c-15.32-1.46-30.65-5.23-45.52-9.51
		c-11.07-3.19-22.52-6.04-33.5-9.5c-5.26-1.66-10.04-4.49-13.99-8.46s-5.59-7.58-5.04-10.89c0.26-1.59,1.58-2.69,3.87-3.29
		c2.87-0.76,6.35-0.93,10.43-0.46c4.07,0.47,7.87,1.59,11.46,3.35c2.16,1.01,7.18,3.94,15.27,9.33c3.84,2.54,9.95,5.35,18.72,8.4
		c8.73,3.04,18.52,5.34,27.71,6.44c8.22,0.99,14.96,1.1,20.04,0.44c5.08-0.66,7.55-1.87,7.45-3.43c-0.09-1.45-2.17-2.75-6.18-4
		s-10.48-2.61-19.33-4.44c-11.9-2.7-23.74-5.55-35.25-9.56c-7.71-2.68-14.95-5.44-21.53-8.23c-7.69-3.77-21.96-9.51-21.1-17.27
		c0.22-2.01,3.81-4.54,8.62-6.17c4.81-1.63,11.04-2.63,18.53-3.12C329.39,194.81,348.47,195.91,367.3,196.56z"/>
</g>
<g>
	<path class="st0" d="M222.34,421.91c-1.91-1.1-2.86-1.66-4.73-2.82c-3.27-2.01-5.56-3.56-6.96-4.5c-1.23-0.83-2.12-1.46-2.67-1.87
		c-1.35-0.99-2.64-2.03-3.9-3.03c-1.24-0.98-2.2-1.71-2.86-2.27c-0.43-0.36-0.62-0.56-0.57-0.59c0.05-0.04,0.39,0.05,1.05,0.15
		c0.38,0.05,0.4-0.2,0.06-0.77c-0.34-0.56-1.35-1.92-2.93-4.2c-2.48-3.57-5.77-8.39-9.68-14.37c-1.44-2.19-2.59-3.63-3.5-4.22
		c-0.91-0.59-2.36-0.86-4.32-0.69c-2.26,0.2-3.75-0.02-4.41-0.88c-0.54-0.7-0.4-1.55,0.45-2.59c0.85-1.04,2.22-2.05,4.1-2.91
		c1.03-0.47,2.38-1.03,4.02-1.66c2.73-1.04,5.68-2.15,8.84-3.28c2.33-0.83,6.88-2.52,13.81-4.6c2.17-0.65,4.16-1.19,5.96-1.62
		c4.26-1.02,7.82-1.35,10.63-1.07c2.8,0.28,5.36,1.24,7.66,2.86c3.75,2.64,6.06,6.74,6.98,11.89c0.46,2.56,0.45,5.05,0,7.43
		c-0.45,2.38-1.28,4.22-2.49,5.53c-0.86,0.95-1.19,1.8-1.02,2.6c0.19,0.87,0.98,1.63,2.36,2.32c2.7,1.34,5.34,3.51,7.85,6.56
		c2.6,3.16,4.25,7.06,5.03,11.48c0.92,5.22,0.25,9.66-1.78,12.89c-2.67,4.28-7.37,4.63-14.19,1.35c-0.93-0.45-3.24-1.61-6.83-3.63
		C225.03,423.55,223.07,422.34,222.34,421.91z M207.69,380.16c1.19,3.46,1.8,5.18,3.04,8.57c0.49,1.35,1.02,2.28,1.58,2.83
		c0.56,0.55,1.29,0.84,2.19,0.85c2.14,0.04,3.51-0.58,4.12-1.94s0.49-3.56-0.37-6.56c-0.83-2.9-2.02-5.13-3.58-6.56
		s-3.38-1.93-5.42-1.55c-1.08,0.2-1.73,0.63-1.96,1.26C207.07,377.7,207.2,378.73,207.69,380.16z M216.45,403.69
		c0.6,1.51,0.91,2.26,1.52,3.75c1.41,3.43,2.61,5.74,3.57,7.04c0.96,1.3,2.17,2.25,3.66,2.83c3.91,1.5,5.06-0.4,3.39-5.71
		c-2.08-6.63-5.51-10.37-10.27-10.98c-1.23-0.16-1.98-0.01-2.25,0.44C215.79,401.49,215.92,402.37,216.45,403.69z"/>
	<path class="st0" d="M255.88,359.56c10.36-0.69,15.61-0.81,26.18-0.86c5.35-0.03,9.26-0.12,11.71-0.38
		c2.45-0.26,4.83-0.8,7.14-1.65c0.71-0.25,1.28-0.37,1.7-0.36c1.81,0.04,3.48,1.34,4.99,3.87c2.49,4.12,3.82,9.02,4.03,14.66
		c0.1,2.84-0.29,5.06-1.17,6.67c-0.87,1.61-2.12,2.39-3.73,2.35c-1.11-0.03-1.99-0.34-2.63-0.95s-1.53-1.94-2.68-4.01
		c-1.62-2.96-3.62-4.97-5.97-6.01c-2.35-1.04-6.14-1.61-11.33-1.68c-3.88-0.05-6.15,0.82-6.83,2.57c-0.35,0.94-0.5,2.19-0.45,3.77
		c0.05,1.57,0.37,5.6,0.91,11.98c0.21,2.52,0.67,4.09,1.36,4.72s2.41,1.03,5.15,1.16c1.36,0.06,2.32-0.26,2.89-0.97
		s0.87-2.03,0.91-3.93c0.06-2.45,0.19-4.16,0.38-5.07s0.61-1.71,1.21-2.38c0.65-0.73,1.44-1.12,2.37-1.09
		c1.37,0.04,2.6,0.92,3.65,2.63c0.77,1.26,1.47,3.51,2.11,6.67c0.63,3.17,1.01,6.45,1.16,9.84c0.29,6.69-0.3,12.06-1.67,16.17
		c-0.75,2.23-1.98,3.29-3.69,3.18c-1.05-0.07-1.8-0.48-2.24-1.22c-0.44-0.75-0.83-2.26-1.18-4.54c-0.72-4.69-2.98-7.17-6.67-7.43
		c-1.42-0.1-2.34,0.42-2.76,1.55s-0.51,3.27-0.26,6.39c0.15,1.91,0.45,4.38,0.88,7.39c0.43,3.02,0.79,5.01,1.06,5.98
		c0.34,1.21,1.12,2.14,2.39,2.74s3.34,1.06,6.24,1.32c4.49,0.4,7.89-0.2,10.17-1.66s4.14-4.24,5.57-8.36
		c0.83-2.37,1.61-3.97,2.31-4.78c0.7-0.82,1.63-1.22,2.77-1.21c1.33,0.01,2.44,0.77,3.32,2.27c0.87,1.5,1.3,3.37,1.29,5.61
		c-0.01,2.45-0.51,5.5-1.49,9.13s-2.14,6.84-3.5,9.63c-0.69,1.35-1.26,2.25-1.71,2.71c-0.45,0.45-1.01,0.68-1.69,0.67
		c-0.56-0.01-1.4-0.12-2.44-0.4c-1.88-0.49-4.43-0.91-7.57-1.24c-12.19-0.82-24.29-2.92-36.05-6.26c-1.39-0.4-2.52-1.12-3.42-2.15
		c-0.9-1.03-1.47-2.27-1.73-3.73c-0.18-1.03-0.14-1.74,0.11-2.12s0.93-0.81,2-1.21c0.74-0.28,1.3-0.72,1.61-1.33
		c0.31-0.61,0.47-1.58,0.5-2.91c0.13-5.44-0.48-13.13-1.78-23.05c-1.27-9.71-2.58-19.72-6.19-28.91c-0.44-0.79-0.87-1.34-1.31-1.64
		c-0.44-0.3-1.32-0.65-2.61-1.03c-1.96-0.57-3.12-2-3.47-4.32c-0.19-1.26-0.05-2.41,0.44-3.45s1.23-1.8,2.21-2.19
		C249.6,360.21,252.12,359.81,255.88,359.56z"/>
	<path class="st0" d="M349.74,358.75c3.61,0.13,8.36,1.39,14.1,3.56c0.69,0.26,1.24,0.39,1.66,0.39c0.35,0,1.41-0.35,3.19-1.06
		c0.57-0.24,1.17-0.35,1.8-0.34c2.34,0.02,4.71,2.18,6.92,6.26c2.21,4.07,3.03,7.82,2.6,11.44c-0.25,2.11-1.03,3.92-2.3,5.46
		c-1.27,1.54-2.68,2.39-4.25,2.52c-1.3,0.11-2.33-0.11-3.08-0.66c-0.75-0.55-2.36-2.24-4.95-5.23c-3.66-4.25-7.6-6.52-11.55-6.51
		c-1.91,0.01-3.45,0.57-4.62,1.69c-1.17,1.12-1.77,2.6-1.83,4.43c-0.11,3.6,2.38,6.26,7.28,7.82c6.65,2.12,10.76,3.49,12.51,4.39
		c7.69,4,10.48,9.85,8.8,18.29c-1.49,7.45-5.36,14.01-11.11,20.06c-5.88,6.19-12.53,10.57-20.54,12.24
		c-3.57,0.74-7.32,0.85-11.31,0.23s-6.96-1.77-8.73-3.25c-1.37-1.14-2.56-3.82-3.64-8.08c-1.08-4.26-1.64-8.5-1.61-12.68
		c0.01-2.01,0.34-3.54,0.97-4.58c0.8-1.32,1.81-2.01,3.02-2.03c1.21-0.02,2.36,0.75,3.43,2.31c0.64,0.88,2.16,3.72,4.36,8.32
		c1.05,2.16,2.74,3.87,5.07,5.07s4.74,1.61,7.27,1.25c2.18-0.31,3.99-1.11,5.46-2.36s2.3-2.69,2.47-4.31
		c0.17-1.51-0.23-2.74-1.21-3.7c-0.98-0.96-2.66-1.78-5.08-2.51c-4.26-1.31-7.59-2.74-9.89-4.12c-2.3-1.38-4.46-3.22-6.5-5.51
		c-4.96-5.64-7.63-12.4-7.74-20.02c-0.05-3.77,0.56-7.46,1.89-11.05c1.33-3.59,3.25-6.69,5.79-9.28
		C334.08,361.2,341.25,358.45,349.74,358.75z"/>
	<path class="st0" d="M410.07,359.99c10.89-0.78,16.3-1.35,27.01-3.11c2.91-0.57,5.62-1.24,8.3-2.11c1.14-0.36,2.13-0.57,2.96-0.66
		c2.91-0.3,5.15,1.22,6.27,4.14c1.11,2.92,0.53,5.87-1.5,9.12c-1.39,2.23-3.31,4.04-5.63,5.52c-1.75,1.11-3.49,1.93-5.24,2.41
		c-1.65,0.46-2.86,0.46-3.66-0.03s-1.36-1.55-1.65-3.18c-0.27-1.49-0.59-2.53-0.97-2.95c-0.38-0.42-1-0.55-1.85-0.36
		c-1.16,0.26-2.18,0.93-3.04,1.99c-0.86,1.05-1.68,2.65-2.52,4.76c-3.95,9.99-6.21,14.78-11.2,23.87c-1.28,2.33-2.01,3.87-2.16,4.65
		s0.21,1.08,1.08,0.9c0.93-0.19,1.45-0.19,1.56,0.02c0.11,0.21-0.16,0.75-0.81,1.61c-1.29,1.73-3.38,3.77-6.2,6.18
		c-2.81,2.41-6.45,5.26-11.18,8.22c-5.81,3.63-10.06,5.44-12.58,5.69c-2.13,0.22-2.86-0.91-2.06-3.27c0.43-1.27,1.24-2.46,2.44-3.56
		c0.29-0.25,1.37-1.01,3.23-2.24c1.12-0.75,2.07-1.67,2.8-2.77c0.74-1.1,1.73-3.03,2.93-5.83c1.07-2.49,2.64-6.47,4.57-12.1
		c1.92-5.63,3.39-10.61,4.47-14.86c0.76-2.99,1.04-5.11,0.87-6.34c-0.16-1.22-0.78-1.77-1.83-1.64c-1.28,0.16-2.73,1.28-4.33,3.38
		c-2.9,3.82-5.13,6.43-6.73,7.79c-1.89,1.6-3.59,2.52-5.12,2.74c-1.72,0.24-3.01-0.29-3.9-1.63c-0.89-1.34-1.19-3.19-0.87-5.52
		c0.32-2.29,1.11-4.88,2.39-7.72c1.29-2.84,2.87-5.48,4.76-7.9c3.06-3.92,5.9-5.87,8.48-5.97c0.7-0.03,1.49,0.07,2.35,0.23
		c1.79,0.34,3.31,0.5,4.47,0.57C407.16,360.12,408.52,360.11,410.07,359.99z"/>
</g>
<g>
	<path class="st0" d="M169.35,274.31c11.35-6.52,23.63-11.33,36.3-14.6c4.11-1.23,7.86-2.66,11.21-4.38
		c1.44-0.71,2.74-1.15,3.9-1.35c4.07-0.69,8.5,1.94,13.37,7.83c4.87,5.89,7.88,12.26,9.05,18.86c0.8,4.52,0.08,7.88-2.17,10.16
		c-1.69,1.71-3.92,2.71-6.68,3.03c-2.62,0.31-5.03-0.13-7.27-1.34s-4.71-3.38-7.24-6.51c-2.28-2.82-3.95-4.7-5.07-5.48
		s-2.34-1.03-3.65-0.73c-1.8,0.41-2.92,1.52-3.37,3.29c-0.45,1.77-0.29,4.45,0.51,8.02c3.3,13.69,6.9,27.22,11.48,40.54
		c1.37,3.97,2.81,6.72,4.26,8.33c1.44,1.62,3.45,2.69,5.98,3.28c2.74,0.65,4.71,1.41,5.89,2.21c1.18,0.8,2.06,2.02,2.65,3.62
		c1.17,3.2-0.02,5.78-3.48,7.89c-3.46,2.11-9.31,3.8-17.52,5.71c-10.08,2.34-17.84,3.99-23.53,4.2c-4.78,0.18-8.08-0.98-9.79-3.91
		c-0.93-1.58-0.92-3.15,0.03-4.7c0.25-0.36,1.41-1.49,3.53-3.26c1.29-1.08,1.95-2.35,1.91-3.86s-0.76-4.17-2.06-8.06
		c-1.15-3.45-3.19-8.99-5.71-16.91c-2.52-7.92-4.45-14.98-6.06-20.97c-1.13-4.21-2.14-7.11-3.16-8.6s-2.2-1.87-3.56-1.1
		c-1.66,0.93-2.97,3.2-3.9,6.72c-1.67,6.4-3.05,10.83-4.37,13.42c-1.56,3.07-3.28,5.25-5.16,6.6c-2.12,1.52-4.1,1.97-5.93,1.34
		s-3.08-2.24-3.74-4.92c-0.65-2.64-0.78-6.03-0.38-10.23c0.41-4.2,1.29-8.53,2.64-12.95c2.17-7.15,4.78-11.99,7.69-14.23
		c0.79-0.61,1.74-1.14,2.79-1.62c2.21-1,4.1-1.89,5.56-2.61C165.74,276.35,167.43,275.42,169.35,274.31z"/>
	<path class="st0" d="M275.45,252.42c9.61,0.5,23.33,3.44,25.66,12.54c0.39,1.52-0.01,3.17-0.69,4.18s-2.13,2.05-4.25,3.17
		c-1.85,0.98-2.93,2.49-3.21,4.45c-0.28,1.96-0.03,6.01,0.77,12.04c0.47,3.55,1.41,5.75,2.83,6.66c0.82,0.56,2.01,0.96,3.56,1.2
		c1.55,0.24,5.18,0.62,10.86,1.27c5.17,0.6,8.33,0.77,9.52,0.41s1.68-1.6,1.45-3.74c-0.69-6.42-1.51-11.04-2.42-13.73
		c-0.91-2.69-2.33-4.65-4.2-5.9c-2.38-1.59-4-2.91-4.82-3.9c-0.82-0.99-1.33-2.22-1.51-3.67c-0.26-2.06,0.31-3.81,1.68-5.2
		c1.38-1.4,3.3-2.15,5.76-2.23c5.12-0.18,11.61,0.87,19.86,2.55c9.67,1.97,16.98,3.86,21.82,6.04s7.46,4.8,7.83,8.04
		c0.31,2.74-1.12,4.62-4.24,5.62c-1.97,0.59-3.22,1.22-3.78,1.9s-0.9,2.07-1.08,4.12c-0.1,1.14,0.16,6.33,0.42,15.26
		s0.35,15.81,0.47,20.85c0.21,8.82,0.5,14.19,1.17,16.5c0.36,1.26,0.76,2.11,1.22,2.54c0.46,0.43,1.92,1.35,4.31,2.65
		c1.71,0.93,2.52,2.24,2.41,3.95c-0.2,3.02-2.42,5.11-6.53,6.33c-4.11,1.22-10.6,1.68-19.56,1.32c-7.85-0.32-13.68-1.27-17.56-2.92
		c-3.52-1.5-5.46-3.71-5.75-6.63c-0.25-2.49,0.9-4.39,3.49-5.63c1.27-0.62,2.12-1.26,2.55-1.94s0.82-1.96,1.1-3.82
		c0.56-3.63,0.58-8.26,0.08-13.88c-0.26-2.9-0.87-4.77-1.84-5.57c-0.97-0.8-3.35-1.42-7.16-1.79c-8.75-0.87-14.3-0.76-16.57,0.05
		c-0.93,0.32-1.39,1.42-1.37,3.28c0.02,2.28,0.27,5.09,0.74,8.39c0.76,5.37,2.06,9.17,3.86,11.52c0.61,0.75,1.95,1.78,3.98,2.96
		c2.03,1.18,3.24,2.99,3.54,5.43c0.38,3.1-1.52,5.33-5.57,6.82c-4.05,1.49-9.94,2.16-17.74,2.16c-7.11,0-13.04-0.62-17.96-1.97
		c-2.13-0.6-3.93-1.47-5.39-2.65c-1.47-1.18-2.42-2.5-2.85-4c-0.43-1.49-0.4-2.68,0.09-3.54c0.49-0.86,1.77-2,3.88-3.39
		c1.1-0.7,1.8-1.56,2.08-2.6s0.25-2.79-0.02-5.24c-0.61-5.5-1.82-12.87-3.67-22.23c-0.34-1.73-0.78-3.8-1.28-6.2
		c-2.51-11.99-3.76-19.2-4.04-20.95c-0.71-4.43-1.53-7.43-2.55-8.86c-1.02-1.42-3.37-2.95-7.04-4.51c-2.44-0.98-3.83-2.55-4.17-4.76
		c-0.82-5.3,3.73-9.48,13.68-11.56C263.08,252.39,269.25,252.09,275.45,252.42z"/>
	<path class="st0" d="M386.89,270.55c13.62,0.76,27.3,0.65,40.9-0.45c8.23-0.67,14.16-1.64,17.87-2.48
		c3.7-0.84,7.28-2.04,10.71-3.59c1.06-0.47,1.9-0.78,2.52-0.9c2.69-0.55,5.21,0.13,7.5,2.12c3.76,3.23,5.78,7.75,5.81,13.61
		c0.02,2.96-0.75,5.52-2.22,7.53c-1.47,2.01-3.46,3.25-5.92,3.71c-1.69,0.32-2.99,0.25-3.92-0.19c-0.92-0.44-2.14-1.57-3.7-3.42
		c-2.22-2.63-5.12-4.13-8.64-4.6c-3.52-0.46-9.29-0.13-17.33,0.58c-6.01,0.53-9.63,1.6-10.85,3.48c-0.63,1.01-0.98,2.35-1.05,4.01
		c-0.08,1.66,0.02,5.91-0.11,12.57c-0.05,2.63,0.39,4.22,1.37,4.79c0.99,0.57,3.64,0.75,7.94,0.4c2.13-0.17,3.69-0.69,4.7-1.55
		c1.01-0.85,1.7-2.28,2.06-4.27c0.46-2.56,0.9-4.37,1.3-5.36c0.41-0.99,1.16-1.9,2.17-2.73c1.09-0.89,2.36-1.47,3.79-1.66
		c2.11-0.27,3.92,0.35,5.31,1.86c1.03,1.11,1.84,3.27,2.33,6.39s0.51,6.4,0.05,9.85c-0.9,6.81-3.21,12.44-6.46,16.94
		c-1.79,2.46-4,3.84-6.6,4.16c-1.61,0.2-2.65-0.04-3.12-0.68c-0.47-0.65-0.64-2.09-0.57-4.32c0.13-4.59-2.85-6.64-8.63-6.21
		c-2.22,0.16-3.81,0.86-4.76,2.1c-0.95,1.24-1.61,3.47-2.06,6.64c-0.28,1.93-0.5,4.41-0.74,7.4c-0.24,2.98-0.33,4.92-0.23,5.84
		c0.13,1.14,1.07,1.9,2.87,2.21c1.8,0.31,4.91,0.29,9.33-0.18c6.84-0.72,12.21-2.28,16.13-4.31c3.92-2.03,7.78-5.2,11.3-9.68
		c2.04-2.58,3.7-4.4,5.03-5.4c1.33-1,2.88-1.64,4.67-1.91c2.08-0.32,3.62,0.19,4.54,1.54c0.93,1.35,1.03,3.2,0.28,5.53
		c-0.82,2.54-2.66,5.82-5.58,9.7c-2.92,3.88-6.1,7.29-9.43,10.25c-1.67,1.44-2.96,2.41-3.85,2.92c-0.89,0.51-1.86,0.81-2.9,0.92
		c-0.86,0.09-2.06,0.11-3.54,0.04c-2.61-0.12-6.14,0.1-10.72,0.64c-18.62,2.21-37.02,3.07-55.77,3.13c-2.26-0.02-3.95-0.47-5.1-1.36
		c-1.15-0.89-1.65-2.13-1.5-3.73c0.11-1.13,0.45-1.96,1.05-2.45s1.93-1.15,3.97-1.87c1.41-0.5,2.52-1.1,3.27-1.84
		c0.75-0.74,1.39-1.85,1.91-3.32c2.13-6.03,3.86-14.53,3.84-25.32c-0.02-10.58,0.25-22.74-4.86-32.64c-0.6-0.94-1.24-1.61-1.91-2.01
		c-0.67-0.41-2.04-0.92-4.08-1.59c-3.08-1.01-4.77-2.9-5.08-5.58c-0.17-1.45,0.18-2.69,1.05-3.72s2.12-1.66,3.71-1.85
		C376.91,270.03,380.93,270.22,386.89,270.55z"/>
</g>
<g>
	<path class="st0" d="M242.43,130.08c-8.28,11.49-16.96,22.16-26.59,32.54c-3.3,3.41-5.12,5.34-5.33,5.95
		c-0.36,1.08,1.63,1.43,6,1.16c1.7-0.11,3.46-0.35,5.27-0.73c1.81-0.39,3.15-0.81,4.04-1.28c1.83-0.99,3.72-2.98,5.79-6.06
		c0.82-1.2,1.55-2.05,2.19-2.53s1.43-0.77,2.37-0.84c2.05-0.17,3.5,0.28,4.36,1.36c0.86,1.08,1.13,2.77,0.8,5.06
		c-0.68,4.69-2.51,8.83-5.62,12.17c-2.19,2.33-4.13,3.39-5.8,3.28c-0.47-0.03-1.09-0.13-1.86-0.29c-2.23-0.53-4.47-0.78-6.66-0.83
		c-14.72-0.12-29.01,0.39-43.63,2.06c-1.94,0.29-3.08,0.47-3.44,0.49c-0.35,0.03-0.65-0.04-0.9-0.19c-0.39-0.27-0.37-0.71,0.08-1.34
		c0.4-0.58,1.36-1.39,2.86-2.45c13.3-9.47,26.17-19.76,37.61-31.45c1.02-1.02,1.6-1.69,1.76-1.99c0.62-1.14-0.49-1.06-3.27,0.33
		c-2.39,1.19-4.29,2.4-5.76,3.51c-1.47,1.12-3.63,3.01-6.55,5.62c-2.24,2-4.1,3.3-5.51,3.96c-1.36,0.63-2.21,0.8-2.48,0.56
		c-0.28-0.25,0.12-0.83,1.13-1.8c1.62-1.55,4.61-3.97,8.72-7.44c2.89-2.44,4.66-3.99,5.45-4.57c0.19-0.14,0.42-0.3,0.7-0.47
		c0.97-0.61,3.68-2.49,8.3-5.38c2.07-1.3,6.95-4.48,14.95-8.88c6.79-3.74,10.42-5.38,10.59-5.45c1.06-0.46,1.83-0.51,2.32-0.15
		c0.5,0.36,0.62,1.08,0.36,2.13C244.49,126.83,243.76,128.16,242.43,130.08z"/>
	<path class="st0" d="M267.9,115.44c3.01-0.76,5.85-1.08,8.53-0.97c3.61,0.16,5.4,1.81,5.26,4.73c-0.05,0.96-0.27,1.71-0.67,2.24
		c-0.4,0.53-1.4,1.35-2.99,2.45c-1.33,0.91-2.29,2.67-2.87,5.27c-0.58,2.6-1.12,7.59-1.55,15.18c-0.73,12.83-0.78,21.15-0.31,24.39
		c0.18,1.03,0.49,1.85,0.93,2.44c0.44,0.59,1.22,1.26,2.34,2.02c2.06,1.29,3.08,2.99,3.04,5.07c-0.07,2.92-2.08,4.68-6.06,5.2
		c-4.3,0.56-9.58,0.35-15.73-0.43c-10.5-1.34-15.46-3.7-15.02-7.48c0.16-1.37,1.32-2.59,3.44-3.69c1.63-0.85,2.67-2.09,3.11-3.69
		c0.97-3.51,2.04-11.11,3.5-22.17c1.01-7.65,1.38-12.32,1-14.24c-0.19-1.09-0.96-1.93-2.18-2.5c-0.95-0.44-1.56-0.88-1.84-1.26
		c-0.27-0.38-0.33-0.95-0.18-1.71c0.23-1.16,0.96-2.25,2.16-3.29c1.2-1.04,3.22-2.28,6.01-3.69
		C261.17,117.62,264.52,116.28,267.9,115.44z"/>
	<path class="st0" d="M330,167.24c-1.91,6.18-2.9,9.3-4.94,15.55c-0.88,2.63-1.62,4.38-2.21,5.26c-0.58,0.87-1.25,1.26-2,1.16
		c-0.72-0.1-1.37-0.57-1.95-1.41c-0.38-0.53-1.26-2.43-2.64-5.64c-1.38-3.21-2.51-6.02-3.41-8.45c-2.74-7.34-4.08-10.95-6.68-17.96
		c-0.89-2.44-1.79-3.67-2.71-3.74c-0.99-0.07-1.52,0.9-1.59,2.89c-0.16,4.44-0.23,8.59-0.18,12.43c0.05,3.99,0.22,6.78,0.58,8.22
		c0.22,0.87,0.54,1.54,0.92,1.98s1.39,1.26,3.06,2.5c1.08,0.81,1.64,2.04,1.68,3.71c0.09,4.44-4.57,5.99-13.96,4.55
		c-7.92-1.21-11.83-3.85-11.76-7.87c0.02-1.03,0.23-1.75,0.64-2.16c0.41-0.41,1.46-0.97,3.14-1.7c1.07-0.43,1.79-1.11,2.16-2.04
		c0.38-0.93,0.7-2.79,0.98-5.55c0.3-2.94,0.62-7.8,0.94-14.45s0.51-12.28,0.58-16.92c0.08-5.81-0.21-9.68-0.89-11.66
		c-0.24-0.68-0.53-1.19-0.85-1.51s-0.93-0.74-1.83-1.21c-1.99-1.01-2.92-2.38-2.85-4.2c0.05-1.18,0.46-2.29,1.23-3.35
		c0.77-1.06,1.79-1.87,3-2.42c1.22-0.56,2.87-1.14,4.92-1.66c2.05-0.51,3.79-0.81,5.22-0.9c3.59-0.23,6.16,0.09,7.68,0.82
		c0.75,0.35,1.34,0.83,1.79,1.44s1.09,1.88,1.96,3.83c3.85,8.45,5.86,12.88,10.01,21.98c1.13,2.5,1.92,4.05,2.34,4.63
		c0.42,0.58,0.98,0.9,1.68,0.97c0.61,0.06,1.13-0.18,1.56-0.71c0.44-0.53,0.92-1.56,1.46-3.08c2.15-6.1,3.18-9.13,5.1-15.07
		c0.59-1.91,0.96-3.15,1.13-3.72c1.07-3.58,2.19-5.86,3.37-6.88c1.52-1.31,4.46-1.64,8.77-0.72c7.58,1.61,11.63,5.08,12.41,9.73
		c0.17,1.05,0.17,1.85-0.03,2.41c-0.19,0.56-0.7,1.19-1.47,1.89c-1.06,0.97-1.61,2.7-1.58,5.07c0.05,4.97,0.59,11.25,1.54,18.82
		c1.22,9.75,2.58,18.53,4.17,26.15c0.39,1.87,0.82,3.16,1.29,3.86c0.47,0.7,1.6,1.79,3.4,3.23c1.25,1.01,1.97,2.3,2.16,3.87
		c0.32,2.76-0.94,4.67-3.83,5.69c-1.49,0.57-3.08,0.91-4.79,1.01c-1.7,0.1-4.34,0.04-7.93-0.25c-5.51-0.44-9.68-1.36-12.44-2.64
		c-3.07-1.42-4.67-3.5-4.81-6.15c-0.05-0.98,0.1-1.76,0.45-2.35c0.35-0.59,1.29-1.62,2.79-3.11c0.78-0.76,1.24-2.34,1.39-4.73
		c0.14-2.39,0.01-6.48-0.4-12.21c-0.23-3.18-0.5-5.27-0.8-6.28c-0.3-1.01-0.82-1.56-1.56-1.65c-0.86-0.1-1.63,0.56-2.34,1.99
		S331.38,162.84,330,167.24z"/>
	<path class="st0" d="M420.09,163.01c6.05,5.95,9.13,8.61,15.39,13.04c1.47,1.02,2.57,1.6,3.31,1.82c0.74,0.22,1.68,0.24,2.81,0.04
		c2.2-0.38,3.71-0.1,4.52,1c0.95,1.3,0.34,2.77-1.89,4.45s-6.36,3.79-12.46,5.68c-6.89,2.13-12.18,3-15.72,3.06
		c-1.62,0.03-3.02-0.33-4.17-1.05c-1.15-0.72-1.88-1.72-2.21-2.96c-0.26-0.95-0.22-1.71,0.11-2.28c0.33-0.57,1.07-1.13,2.2-1.7
		c1.27-0.64,1.72-1.53,1.36-2.66c-0.63-1.99-2.22-3.08-4.71-3.33c-2.67-0.26-6.35-0.34-11.08-0.35c-3.98,0-6.33,0.2-7,0.75
		c-0.41,0.34-0.71,0.97-0.89,1.89c-0.18,0.92-0.2,1.81-0.03,2.67c0.15,0.79,0.38,1.3,0.69,1.53c0.31,0.23,1.25,0.63,2.8,1.1
		c1.98,0.6,3.22,1.78,3.61,3.67c0.86,4.15-3.23,6.82-12.35,7.13c-5.19,0.17-9.1-0.27-11.63-1.18c-2.35-0.84-3.69-2.72-4.02-5.51
		c-0.15-1.22-0.01-2.15,0.4-2.79c0.41-0.64,1.22-1.2,2.4-1.69c1.93-0.79,3.3-1.97,4.11-3.5s1.8-4.83,2.81-9.69
		c1.39-6.63,2-9.83,3.02-15.92c0.95-5.58,1.3-9.49,1.29-12.11c0-2.62-0.37-5.21-1.07-7.83c-0.74-2.78-1.15-4.65-1.22-5.62
		c-0.07-0.98,0.16-1.81,0.67-2.47c1.03-1.47,2.79-1.5,5.32-0.2c2.39,1.22,5.17,3.6,8.18,6.84
		C403.13,143.99,411.02,154.14,420.09,163.01z M393.22,165.62c3.38,0.32,5.07,0.46,8.4,0.73c1.53,0.12,2.18-0.19,1.94-0.91
		c-0.32-1-2.18-3.49-5.48-7.78c-1.5-1.96-2.59-3.33-3.26-4.05c-0.68-0.72-1.29-1.14-1.83-1.26c-0.97-0.21-1.47,0.68-1.54,2.72
		c-0.03,0.27-0.11,1.34-0.27,3.26c-0.3,3.17-0.41,5.17-0.25,5.84C391.13,165.01,391.9,165.49,393.22,165.62z"/>
</g>
</svg>
